<?xml version="1.0" standalone="no"?>
<!DOCTYPE svg PUBLIC "-//W3C//DTD SVG 20010904//EN"
 "http://www.w3.org/TR/2001/REC-SVG-20010904/DTD/svg10.dtd">
<svg version="1.0" xmlns="http://www.w3.org/2000/svg"
 width="1800.000000pt" height="1800.000000pt" viewBox="0 0 1800.000000 1800.000000"
 preserveAspectRatio="xMidYMid meet">
<metadata>
Created by potrace 1.11, written by Peter Selinger 2001-2013
</metadata>
<g transform="translate(0.000000,1800.000000) scale(0.100000,-0.100000)"
fill="#000000" stroke="none">
<path d="M4339 14755 c-2 -1 -42 -6 -89 -9 -47 -4 -92 -9 -100 -11 -8 -2 -35
-6 -60 -9 -25 -3 -54 -7 -65 -10 -11 -2 -40 -7 -65 -11 -68 -10 -271 -62 -379
-97 -373 -118 -770 -340 -1041 -582 -93 -83 -268 -264 -325 -336 -33 -41 -62
-77 -65 -80 -15 -14 -136 -199 -178 -272 -158 -273 -274 -606 -307 -884 -4
-33 -10 -68 -12 -79 -9 -34 -11 -485 -3 -560 4 -38 11 -104 15 -145 3 -41 10
-95 15 -120 5 -25 12 -65 15 -90 10 -68 18 -113 29 -165 3 -11 12 -54 21 -95
41 -194 144 -531 229 -748 50 -127 145 -344 158 -359 6 -7 8 -13 5 -13 -9 0
163 -334 253 -490 100 -175 211 -354 222 -358 4 -2 8 -8 8 -14 0 -5 11 -24 25
-42 14 -18 25 -36 25 -39 0 -4 7 -15 15 -24 7 -10 53 -74 101 -143 48 -69 91
-126 96 -128 4 -2 8 -8 8 -13 0 -7 82 -121 100 -139 3 -3 41 -50 84 -105 74
-92 210 -257 246 -296 39 -42 86 -96 98 -111 11 -14 9 -26 -11 -75 -40 -97
-110 -309 -118 -355 0 -4 -7 -31 -15 -60 -23 -87 -29 -164 -28 -353 0 -180 9
-309 29 -429 3 -17 10 -58 16 -91 5 -33 14 -80 19 -105 6 -25 12 -54 14 -65
59 -294 218 -691 399 -995 89 -150 282 -424 341 -486 6 -6 33 -38 61 -70 76
-91 349 -360 460 -455 196 -167 417 -325 665 -475 142 -86 491 -268 600 -314
30 -12 75 -31 100 -42 92 -41 108 -48 252 -102 81 -31 204 -74 275 -97 70 -22
137 -44 148 -49 11 -4 49 -16 85 -26 36 -9 97 -26 135 -36 39 -11 77 -21 85
-23 366 -89 681 -148 970 -180 30 -3 71 -8 90 -10 19 -2 71 -7 115 -11 44 -4
94 -8 110 -10 138 -13 310 -18 605 -19 356 0 535 7 758 30 28 3 78 8 110 11
135 13 368 46 527 74 140 25 143 26 255 50 52 11 106 23 120 26 14 2 57 13 96
24 39 10 81 21 95 24 191 41 651 197 944 321 111 47 492 233 575 282 319 184
659 425 865 612 63 57 318 313 366 366 134 152 293 367 406 552 59 96 213 390
213 407 0 3 9 25 20 49 91 199 197 561 224 772 3 22 7 49 10 60 4 24 17 127
22 175 2 19 5 125 8 235 4 166 1 216 -14 295 -31 161 -76 313 -140 476 l-30
76 26 31 c15 18 53 61 85 97 44 50 272 326 317 385 609 797 1022 1600 1221
2378 21 84 42 170 46 192 5 22 9 45 11 50 1 6 5 26 8 45 4 19 11 58 16 85 10
52 15 87 25 170 4 28 8 61 10 75 20 137 27 583 12 705 -63 496 -245 922 -561
1315 -62 77 -280 299 -351 358 -45 37 -250 190 -280 209 -285 180 -524 290
-820 377 -122 36 -334 82 -422 92 -26 3 -55 7 -63 9 -94 26 -615 26 -800 1
-71 -10 -280 -47 -310 -55 -19 -5 -64 -17 -100 -26 -300 -78 -639 -230 -901
-406 -195 -131 -476 -383 -595 -534 -21 -27 -42 -52 -45 -55 -18 -16 -149
-209 -195 -287 l-54 -91 -58 14 c-31 7 -120 27 -197 43 -125 27 -172 36 -240
46 -147 22 -239 36 -280 40 -27 3 -61 8 -75 10 -14 2 -61 7 -105 10 -44 4 -96
8 -115 10 -253 26 -1089 26 -1251 0 -13 -2 -55 -6 -94 -10 -123 -11 -246 -24
-271 -29 -11 -2 -41 -7 -69 -10 -76 -10 -336 -56 -375 -66 -19 -5 -50 -12 -68
-15 -31 -5 -128 -29 -163 -40 -13 -4 -26 9 -50 52 -66 118 -193 298 -276 393
-12 14 -31 36 -43 50 -67 79 -221 225 -330 313 -324 261 -698 451 -1097 558
-114 30 -132 35 -188 44 -16 3 -37 8 -45 10 -8 2 -33 7 -55 10 -23 3 -50 7
-60 9 -11 2 -47 7 -80 11 -33 4 -71 9 -85 11 -30 6 -516 14 -521 9z m481 -649
c19 -3 58 -8 85 -12 56 -7 50 -6 160 -29 88 -18 293 -79 340 -100 17 -8 64
-28 105 -45 352 -146 698 -426 926 -748 41 -58 71 -109 67 -113 -4 -4 -44 -26
-88 -49 -186 -97 -372 -248 -465 -378 -34 -48 -322 -499 -333 -522 -4 -8 -24
-41 -45 -73 -20 -31 -118 -189 -216 -350 -99 -160 -207 -337 -241 -392 -34
-55 -103 -170 -154 -255 -51 -85 -96 -162 -101 -170 -43 -70 -118 -198 -123
-210 -4 -8 -13 -24 -19 -35 -77 -119 -463 -802 -583 -1030 -26 -49 -55 -103
-65 -120 -29 -49 -158 -299 -250 -483 l-87 -174 -78 94 c-105 126 -282 362
-397 533 -482 709 -804 1438 -922 2085 -23 128 -25 140 -31 200 -4 30 -8 71
-11 90 -12 77 -11 437 1 515 29 185 38 224 91 377 148 427 473 813 896 1067
148 88 363 184 511 227 116 34 154 44 182 50 17 3 50 10 75 15 133 31 320 46
525 43 116 -1 226 -5 245 -8z m8590 1 c14 -3 48 -8 75 -12 259 -32 548 -124
790 -249 146 -77 165 -89 313 -197 391 -288 669 -703 767 -1144 36 -161 43
-240 40 -445 -3 -260 -34 -493 -100 -755 -14 -55 -28 -110 -30 -122 -13 -56
-103 -322 -150 -443 -133 -341 -280 -634 -498 -995 -7 -11 -73 -112 -147 -224
-74 -112 -139 -210 -145 -219 -12 -19 -6 -10 -155 -206 -67 -87 -127 -164
-133 -171 -7 -7 -28 -33 -47 -59 -19 -25 -37 -45 -40 -46 -3 0 -22 35 -43 78
-219 448 -614 1167 -1009 1836 -177 299 -323 544 -358 600 -8 13 -28 46 -44
73 -42 69 -338 549 -358 581 -10 15 -21 34 -25 42 -7 14 -144 233 -251 400
-162 254 -231 334 -375 441 -71 54 -173 114 -272 164 -22 11 -42 21 -44 23 -4
2 75 123 104 160 117 149 273 307 400 407 221 173 471 303 735 385 69 21 139
41 155 44 17 3 62 12 100 20 100 20 130 25 220 32 44 4 82 8 84 10 6 5 410 -4
441 -9z m-4095 -1281 c28 -3 84 -8 125 -11 158 -14 174 -16 350 -39 127 -17
311 -49 348 -60 9 -3 35 -8 57 -12 22 -3 43 -8 46 -10 4 -2 23 -6 43 -9 20 -4
66 -15 103 -26 38 -11 79 -22 92 -25 113 -24 419 -157 557 -241 139 -84 198
-155 375 -451 9 -15 55 -88 102 -162 47 -74 108 -171 134 -214 26 -44 55 -91
64 -105 88 -141 542 -891 660 -1091 81 -138 258 -446 359 -625 87 -155 228
-410 273 -495 30 -58 94 -179 142 -270 310 -588 493 -1007 622 -1425 23 -76
27 -109 28 -210 2 -167 -17 -343 -56 -525 -31 -148 -38 -173 -80 -302 -194
-591 -593 -1113 -1194 -1563 -230 -173 -685 -432 -945 -540 -36 -15 -83 -35
-105 -45 -124 -55 -445 -167 -630 -219 -60 -17 -123 -35 -140 -40 -69 -20
-344 -84 -415 -96 -19 -3 -80 -14 -135 -25 -139 -26 -425 -65 -555 -75 -36 -3
-78 -8 -95 -10 -189 -26 -1017 -26 -1210 0 -16 2 -59 6 -95 9 -272 24 -637 85
-920 153 -80 19 -152 36 -161 38 -9 2 -81 22 -160 45 -600 173 -1152 430
-1599 745 -47 32 -90 64 -96 70 -6 5 -22 17 -34 25 -62 41 -216 171 -348 295
-169 158 -394 433 -526 642 -160 255 -308 630 -361 918 -10 50 -19 97 -20 106
-3 15 -14 92 -21 154 -11 89 -12 334 -3 370 97 348 248 723 475 1175 108 216
169 333 362 690 58 108 219 395 322 575 54 94 106 186 116 205 31 57 135 233
155 262 11 15 19 29 19 32 0 2 61 106 135 230 74 125 135 231 135 236 0 4 3
10 8 12 4 2 45 66 91 143 128 213 418 684 573 929 76 120 138 222 138 227 0 5
4 9 9 9 5 0 12 8 15 18 14 44 118 128 251 205 197 113 507 224 785 281 14 3
36 8 50 11 53 13 311 57 350 60 14 1 48 5 75 9 75 10 115 15 280 31 22 2 99 7
170 11 72 4 132 8 134 10 5 4 719 -4 776 -10z"/>
<path d="M4260 13149 c-25 -4 -63 -10 -84 -14 -63 -11 -208 -61 -278 -96 -140
-70 -297 -194 -392 -309 -123 -150 -227 -385 -253 -570 -12 -83 -8 -317 6
-385 39 -185 124 -379 200 -455 69 -68 110 -85 211 -85 74 0 92 4 144 30 73
37 128 92 160 159 43 92 39 174 -15 280 -54 105 -71 165 -75 261 -6 160 43
282 157 398 80 81 178 130 289 148 123 19 208 4 350 -63 171 -81 313 -51 414
86 98 132 88 304 -24 414 -75 73 -275 160 -445 192 -74 14 -304 20 -365 9z"/>
<path d="M13115 13149 c-145 -21 -234 -48 -362 -110 -117 -57 -175 -108 -208
-183 -31 -67 -36 -125 -18 -194 27 -104 88 -184 176 -229 43 -22 65 -27 132
-27 75 0 86 3 162 42 179 91 350 94 517 10 83 -41 192 -154 228 -233 48 -108
48 -110 54 -215 5 -104 -11 -174 -66 -287 -58 -119 -66 -170 -41 -259 12 -45
58 -114 100 -150 14 -12 51 -35 81 -51 49 -25 65 -28 145 -27 79 0 96 4 137
28 26 15 64 46 83 69 58 67 151 270 170 369 3 13 10 48 16 78 17 89 19 285 4
385 -88 572 -587 997 -1165 992 -52 0 -117 -4 -145 -8z"/>
<path d="M8665 9309 c-65 -9 -116 -18 -137 -25 -9 -3 -27 -7 -39 -9 -154 -30
-421 -165 -564 -285 -58 -49 -184 -181 -228 -238 -133 -176 -217 -360 -270
-589 -22 -97 -22 -106 -24 -1063 -1 -594 2 -981 7 -1008 6 -23 13 -59 16 -80
15 -100 88 -307 140 -400 15 -26 32 -56 38 -67 53 -97 212 -283 321 -374 99
-83 256 -176 381 -226 71 -29 217 -72 269 -80 17 -3 57 -9 90 -14 33 -5 125
-8 205 -6 135 3 176 7 240 21 14 3 36 8 50 10 110 19 356 125 472 205 178 121
328 276 435 449 68 112 149 299 167 392 2 13 13 59 23 103 17 74 18 148 18
1055 0 906 -1 981 -18 1055 -10 44 -20 89 -23 100 -25 124 -121 330 -216 466
-61 87 -184 222 -267 293 -80 68 -322 211 -376 222 -5 1 -26 9 -45 17 -32 14
-173 53 -226 63 -116 22 -334 28 -439 13z m329 -645 c313 -59 563 -309 630
-629 22 -103 22 -1793 1 -1905 -49 -253 -229 -480 -462 -581 -105 -46 -169
-60 -298 -64 -227 -9 -424 69 -589 231 -55 54 -75 79 -111 139 -46 76 -54 91
-75 149 -48 128 -49 145 -49 1076 -1 817 1 881 18 960 39 177 106 298 231 419
117 113 255 179 445 214 48 9 189 4 259 -9z"/>
<path d="M6476 8984 c-153 -41 -290 -173 -335 -322 -90 -306 140 -620 454
-620 280 0 492 222 481 502 -8 194 -131 360 -320 431 -61 22 -210 27 -280 9z"/>
<path d="M10970 8986 c-74 -19 -107 -35 -166 -75 -245 -170 -271 -528 -53
-736 150 -143 365 -173 554 -78 68 35 166 136 204 211 127 252 -5 574 -274
666 -69 23 -197 29 -265 12z"/>
</g>
</svg>
